<?xml version="1.0" standalone="no"?>
<!DOCTYPE svg PUBLIC "-//W3C//DTD SVG 20010904//EN"
 "http://www.w3.org/TR/2001/REC-SVG-20010904/DTD/svg10.dtd">
<svg version="1.0" xmlns="http://www.w3.org/2000/svg"
 width="64.000000pt" height="64.000000pt" viewBox="0 0 64.000000 64.000000"
 preserveAspectRatio="xMidYMid meet">

<g transform="translate(0.000000,64.000000) scale(0.100000,-0.100000)"
fill="#000000" stroke="none">
<path d="M240 547 c-19 -6 -58 -34 -86 -62 -80 -80 -95 -176 -44 -279 l24 -46
-29 -30 c-45 -47 -28 -52 136 -48 157 4 194 15 251 75 92 97 90 232 -7 328
-70 71 -152 91 -245 62z m170 -180 c0 -7 -22 -35 -50 -62 l-50 -49 -30 29
c-28 26 -40 55 -23 55 4 0 17 -10 30 -22 l24 -22 42 42 c44 44 57 51 57 29z"/>
</g>
</svg>
