<?xml version="1.0" standalone="no"?>
<!DOCTYPE svg PUBLIC "-//W3C//DTD SVG 20010904//EN"
 "http://www.w3.org/TR/2001/REC-SVG-20010904/DTD/svg10.dtd">
<svg version="1.0" xmlns="http://www.w3.org/2000/svg"
 width="360.000000pt" height="360.000000pt" viewBox="0 0 360.000000 360.000000"
 preserveAspectRatio="xMidYMid meet">
<metadata>
Created by potrace 1.16, written by Peter Selinger 2001-2019
</metadata>
<g transform="translate(0.000000,360.000000) scale(0.100000,-0.100000)"
fill="#000000" stroke="none">
<path d="M2584 3509 c-107 -164 -166 -337 -186 -543 -9 -95 -9 -167 3 -360 8
-133 14 -335 13 -451 0 -184 -3 -220 -22 -290 -28 -102 -76 -201 -141 -293
l-52 -73 -47 40 c-95 80 -644 640 -638 650 12 20 130 99 201 135 l70 36 245
-245 c135 -135 254 -245 263 -245 9 0 19 10 22 23 3 12 9 42 15 67 l9 45 -196
196 -196 197 34 7 c19 4 105 8 192 8 l159 0 -7 61 c-3 34 -8 78 -11 99 l-6 37
-153 0 c-373 0 -604 -95 -845 -346 -132 -137 -202 -251 -253 -409 -63 -193
-70 -306 -53 -900 8 -297 7 -314 -13 -414 -26 -122 -75 -248 -132 -339 l-40
-65 71 -71 71 -71 19 25 c37 48 112 181 137 243 90 219 108 428 83 940 -19
397 21 606 155 806 l47 71 344 -338 343 -337 -36 -33 c-20 -18 -78 -53 -128
-79 -74 -37 -96 -45 -120 -39 -20 5 -104 82 -261 238 -184 183 -233 226 -237
212 -3 -11 -11 -48 -17 -83 l-11 -63 171 -174 c95 -95 169 -178 165 -184 -4
-6 -48 -10 -109 -10 -57 0 -130 -3 -162 -6 l-59 -6 4 -82 c5 -125 -3 -120 170
-113 233 10 384 43 534 118 291 145 514 413 594 716 36 135 42 373 18 706 -11
151 -16 287 -12 362 9 191 61 362 156 510 l31 49 -67 68 c-37 37 -71 68 -75
68 -5 0 -29 -32 -54 -71z"/>
<path d="M2706 3102 c-9 -32 -16 -67 -16 -78 0 -11 78 -96 197 -216 108 -109
194 -200 191 -203 -8 -8 -217 -25 -315 -25 l-82 0 5 -57 c3 -32 7 -77 10 -100
l5 -43 87 0 c209 1 390 32 534 90 80 33 199 99 247 139 l33 27 -75 68 -75 67
-59 -38 c-32 -21 -77 -47 -100 -57 l-42 -19 -148 141 c-82 77 -197 190 -258
251 -60 61 -113 111 -116 111 -4 0 -14 -26 -23 -58z"/>
<path d="M665 1199 c-231 -15 -446 -90 -627 -219 l-37 -27 72 -71 72 -71 70
44 c131 83 91 102 368 -172 133 -132 253 -246 266 -253 30 -15 35 -8 51 73
l12 60 -204 205 -203 205 30 8 c17 5 111 14 210 21 l180 11 -3 86 c-2 47 -7
89 -10 93 -11 11 -130 14 -247 7z"/>
</g>
</svg>
